<svg xmlns="http://www.w3.org/2000/svg" viewBox="0 0 260 100" role="img" aria-label="Greek To Go Taverna">
  <rect width="260" height="100" rx="10" fill="#283593"/>
  <rect x="8" y="12" width="52" height="76" rx="8" fill="white"/>
  <g fill="#283593">
    <ellipse cx="28" cy="58" rx="7" ry="4" transform="rotate(-40 28 58)"/>
    <ellipse cx="22" cy="50" rx="6" ry="3.5" transform="rotate(-50 22 50)"/>
    <ellipse cx="32" cy="48" rx="6" ry="3.5" transform="rotate(-30 32 48)"/>
    <ellipse cx="18" cy="42" rx="5" ry="3" transform="rotate(-55 18 42)"/>
    <ellipse cx="28" cy="38" rx="5" ry="3" transform="rotate(-35 28 38)"/>
    <ellipse cx="36" cy="36" rx="5" ry="3" transform="rotate(-20 36 36)"/>
    <ellipse cx="20" cy="32" rx="4" ry="2.5" transform="rotate(-60 20 32)"/>
    <ellipse cx="30" cy="28" rx="4" ry="2.5" transform="rotate(-40 30 28)"/>
    <circle cx="24" cy="44" r="2.5"/>
    <circle cx="34" cy="40" r="2.5"/>
    <circle cx="28" cy="32" r="2"/>
    <line x1="28" y1="65" x2="28" y2="25" stroke="#283593" stroke-width="2"/>
  </g>
  <text x="72" y="46" fill="white" font-family="Arial Black,sans-serif" font-size="22" font-weight="900" letter-spacing="1">GREEK</text>
  <text x="72" y="72" fill="white" font-family="Arial Black,sans-serif" font-size="22" font-weight="900" letter-spacing="1">TO GO</text>
  <text x="72" y="88" fill="white" font-family="Arial,sans-serif" font-size="10" letter-spacing="5">TAVERNA</text>
</svg>
